<svg width="15" height="19" viewBox="0 0 15 19" fill="none" xmlns="http://www.w3.org/2000/svg">
<rect width="15" height="19" fill="#1E1E1E"/>
<g id="Designs">
<path d="M-3463 -368C-3463 -396.003 -3463 -410.004 -3457.55 -420.7C-3452.76 -430.108 -3445.11 -437.757 -3435.7 -442.55C-3425 -448 -3411 -448 -3383 -448H1078C1106 -448 1120 -448 1130.7 -442.55C1140.11 -437.757 1147.76 -430.108 1152.55 -420.7C1158 -410.004 1158 -396.003 1158 -368V1169C1158 1197 1158 1211 1152.55 1221.7C1147.76 1231.11 1140.11 1238.76 1130.7 1243.55C1120 1249 1106 1249 1078 1249H-3383C-3411 1249 -3425 1249 -3435.7 1243.55C-3445.11 1238.76 -3452.76 1231.11 -3457.55 1221.7C-3463 1211 -3463 1197 -3463 1169V-368Z" fill="#2E2E2E"/>
<path d="M-3435.7 1243.55L-3436.15 1244.44L-3435.7 1243.55ZM-3457.55 1221.7L-3456.66 1221.25L-3457.55 1221.7ZM1152.55 1221.7L1153.44 1222.15L1152.55 1221.7ZM1130.7 1243.55L1131.15 1244.44L1130.7 1243.55ZM1130.7 -442.55L1131.15 -443.441L1130.7 -442.55ZM1152.55 -420.7L1153.44 -421.154L1152.55 -420.7ZM-3383 -447H1078V-449H-3383V-447ZM1157 -368V1169H1159V-368H1157ZM1078 1248H-3383V1250H1078V1248ZM-3462 1169V-368H-3464V1169H-3462ZM-3383 1248C-3397.02 1248 -3407.47 1248 -3415.76 1247.32C-3424.03 1246.65 -3430.06 1245.3 -3435.25 1242.66L-3436.15 1244.44C-3430.64 1247.25 -3424.32 1248.63 -3415.92 1249.32C-3407.53 1250 -3396.98 1250 -3383 1250V1248ZM-3464 1169C-3464 1182.98 -3464 1193.53 -3463.32 1201.92C-3462.63 1210.32 -3461.25 1216.64 -3458.44 1222.15L-3456.66 1221.25C-3459.3 1216.06 -3460.65 1210.03 -3461.32 1201.76C-3462 1193.47 -3462 1183.02 -3462 1169H-3464ZM-3435.25 1242.66C-3444.47 1237.96 -3451.96 1230.47 -3456.66 1221.25L-3458.44 1222.15C-3453.55 1231.75 -3445.75 1239.55 -3436.15 1244.44L-3435.25 1242.66ZM1157 1169C1157 1183.02 1157 1193.47 1156.32 1201.76C1155.65 1210.03 1154.3 1216.06 1151.66 1221.25L1153.44 1222.15C1156.25 1216.64 1157.63 1210.32 1158.32 1201.92C1159 1193.53 1159 1182.98 1159 1169H1157ZM1078 1250C1091.98 1250 1102.53 1250 1110.92 1249.32C1119.32 1248.63 1125.64 1247.25 1131.15 1244.44L1130.25 1242.66C1125.06 1245.3 1119.03 1246.65 1110.76 1247.32C1102.47 1248 1092.02 1248 1078 1248V1250ZM1151.66 1221.25C1146.96 1230.47 1139.47 1237.96 1130.25 1242.66L1131.15 1244.44C1140.75 1239.55 1148.55 1231.75 1153.44 1222.15L1151.66 1221.25ZM1078 -447C1092.02 -447 1102.47 -446.999 1110.76 -446.322C1119.03 -445.646 1125.06 -444.3 1130.25 -441.659L1131.15 -443.441C1125.64 -446.25 1119.32 -447.629 1110.92 -448.315C1102.53 -449.001 1091.98 -449 1078 -449V-447ZM1159 -368C1159 -381.985 1159 -392.534 1158.32 -400.921C1157.63 -409.321 1156.25 -415.641 1153.44 -421.154L1151.66 -420.246C1154.3 -415.062 1155.65 -409.034 1156.32 -400.758C1157 -392.471 1157 -382.018 1157 -368H1159ZM1130.25 -441.659C1139.47 -436.962 1146.96 -429.465 1151.66 -420.246L1153.44 -421.154C1148.55 -430.75 1140.75 -438.552 1131.15 -443.441L1130.25 -441.659ZM-3383 -449C-3396.98 -449 -3407.53 -449.001 -3415.92 -448.315C-3424.32 -447.629 -3430.64 -446.25 -3436.15 -443.441L-3435.25 -441.659C-3430.06 -444.3 -3424.03 -445.646 -3415.76 -446.322C-3407.47 -446.999 -3397.02 -447 -3383 -447V-449ZM-3462 -368C-3462 -382.018 -3462 -392.471 -3461.32 -400.758C-3460.65 -409.034 -3459.3 -415.062 -3456.66 -420.246L-3458.44 -421.154C-3461.25 -415.641 -3462.63 -409.321 -3463.32 -400.921C-3464 -392.534 -3464 -381.985 -3464 -368H-3462ZM-3436.15 -443.441C-3445.75 -438.552 -3453.55 -430.75 -3458.44 -421.154L-3456.66 -420.246C-3451.96 -429.465 -3444.47 -436.962 -3435.25 -441.659L-3436.15 -443.441Z" fill="white" fill-opacity="0.1"/>
<g id="2">
<rect id="Screenshot 2023-12-06 at 11.25" x="-1076" y="-29" width="1439" height="858" fill="white"/>
<g id="Group 1000003264">
<g id="Rectangle 6816" filter="url(#filter0_d_0_1)">
<rect x="-1076" y="-29" width="1439" height="77" fill="white"/>
</g>
<g id="Frame 1000003290">
<g id="Frame 1000003288">
<g id="Frame 1000003287">
<g id="Frame 1000003285">
<rect x="-6.74316" y="-7" width="28.9504" height="32.7408" rx="3.92105" fill="white"/>
<rect x="-6.35106" y="-6.60789" width="28.1662" height="31.9566" rx="3.52895" stroke="#0FA958" stroke-opacity="0.44" stroke-width="0.784211"/>
<g id="Group">
<path id="Vector" d="M9.62744 0.842102V4.63245C9.62744 4.88377 9.72728 5.12479 9.90498 5.3025C10.0827 5.48021 10.3237 5.58004 10.575 5.58004H14.3654" stroke="#0FA958" stroke-width="1.17632" stroke-linecap="round" stroke-linejoin="round"/>
<path id="Vector_2" d="M12.4702 17.8987H2.9943C2.49166 17.8987 2.00962 17.699 1.65421 17.3436C1.29879 16.9882 1.09912 16.5061 1.09912 16.0035V2.73728C1.09912 2.23465 1.29879 1.7526 1.65421 1.39719C2.00962 1.04177 2.49166 0.842102 2.9943 0.842102H9.62741L14.3653 5.58004V16.0035C14.3653 16.5061 14.1657 16.9882 13.8103 17.3436C13.4548 17.699 12.9728 17.8987 12.4702 17.8987Z" stroke="#0FA958" stroke-width="1.17632" stroke-linecap="round" stroke-linejoin="round"/>
</g>
</g>
</g>
</g>
</g>
</g>
</g>
</g>
<defs>
<filter id="filter0_d_0_1" x="-1101" y="-62" width="1489" height="127" filterUnits="userSpaceOnUse" color-interpolation-filters="sRGB">
<feFlood flood-opacity="0" result="BackgroundImageFix"/>
<feColorMatrix in="SourceAlpha" type="matrix" values="0 0 0 0 0 0 0 0 0 0 0 0 0 0 0 0 0 0 127 0" result="hardAlpha"/>
<feOffset dy="-8"/>
<feGaussianBlur stdDeviation="12.5"/>
<feComposite in2="hardAlpha" operator="out"/>
<feColorMatrix type="matrix" values="0 0 0 0 0 0 0 0 0 0 0 0 0 0 0 0 0 0 0.22 0"/>
<feBlend mode="normal" in2="BackgroundImageFix" result="effect1_dropShadow_0_1"/>
<feBlend mode="normal" in="SourceGraphic" in2="effect1_dropShadow_0_1" result="shape"/>
</filter>
</defs>
</svg>
